<?xml version="1.0" encoding="utf-8"?>
<!-- Generator: Adobe Illustrator 16.0.0, SVG Export Plug-In . SVG Version: 6.00 Build 0)  -->
<!DOCTYPE svg PUBLIC "-//W3C//DTD SVG 1.1//EN" "http://www.w3.org/Graphics/SVG/1.1/DTD/svg11.dtd">
<svg version="1.1" id="Capa_1" xmlns="http://www.w3.org/2000/svg" xmlns:xlink="http://www.w3.org/1999/xlink" x="0px" y="0px"
	 width="45.057px" height="45.057px" viewBox="0 0 45.057 45.057" enable-background="new 0 0 45.057 45.057" xml:space="preserve">
<g>
	<g id="_x35_8_24_">
		<g>
			<path d="M23.737,25.389c-0.066,0.176-0.155,0.328-0.264,0.455c-0.108,0.129-0.24,0.229-0.396,0.301
				c-0.155,0.072-0.347,0.107-0.569,0.107c-0.313,0-0.572-0.068-0.78-0.203c-0.208-0.137-0.374-0.316-0.498-0.541
				c-0.124-0.223-0.214-0.477-0.271-0.756s-0.084-0.564-0.084-0.853c0-0.289,0.027-0.571,0.084-0.853s0.146-0.533,0.271-0.756
				c0.124-0.226,0.29-0.404,0.498-0.541c0.208-0.138,0.468-0.203,0.78-0.203c0.271,0,0.493,0.051,0.666,0.154
				c0.172,0.104,0.31,0.225,0.414,0.36c0.104,0.138,0.176,0.273,0.216,0.414c0.04,0.14,0.067,0.25,0.084,0.33h2.567
				c-0.111-1.08-0.489-1.914-1.135-2.502c-0.644-0.588-1.558-0.887-2.741-0.895c-0.664,0-1.263,0.106-1.794,0.323
				c-0.531,0.216-0.987,0.521-1.368,0.912c-0.38,0.393-0.672,0.863-0.876,1.416c-0.203,0.551-0.307,1.165-0.307,1.836
				c0,0.631,0.097,1.224,0.288,1.771c0.192,0.549,0.475,1.021,0.847,1.422s0.825,0.717,1.361,0.949
				c0.536,0.229,1.152,0.348,1.849,0.348c0.624,0,1.181-0.104,1.668-0.312c0.487-0.209,0.897-0.482,1.229-0.822
				s0.584-0.724,0.756-1.146c0.172-0.422,0.259-0.852,0.259-1.282h-2.593C23.859,25.023,23.806,25.214,23.737,25.389z"/>
			<polygon points="30.799,24.812 30.775,24.812 29.37,19.616 26.706,19.616 29.263,28.184 32.215,28.184 34.892,19.616 
				32.179,19.616 			"/>
			<path d="M37.61,0H9.358v45.057h34.699V6.251L37.61,0z M41.057,42.056H12.358V3h23.706v4.76h4.992L41.057,42.056L41.057,42.056z"
				/>
		</g>
	</g>
</g>
</svg>
