<svg version="1.1" id="Capa_1" xmlns="http://www.w3.org/2000/svg" xmlns:xlink="http://www.w3.org/1999/xlink" x="0px" y="0px"
	 width="792px" height="792px" viewBox="0 0 792 792" enable-background="new 0 0 792 792" xml:space="preserve">
<g>
	<path fill="#933028" id="facebook_svg" d="M414.406,792H276.005c-10.454,0-18.938-8.484-18.938-18.938V448.005h-96.851c-10.454,0-18.938-8.483-18.938-18.938V295.021
		c0-10.454,8.484-18.938,18.938-18.938h96.851v-79.882C257.066,75.147,330.358,0,448.381,0c52.725,0,95.185,4.053,105.902,5.492
		c9.432,1.25,16.438,9.28,16.438,18.787v119.842c0,10.454-8.483,18.938-18.938,18.938l-70.905,0.076
		c-40.944,0-47.535,13.635-47.535,46.323v66.663h113.819c5.454,0,10.644,2.348,14.203,6.439c3.599,4.053,5.266,9.507,4.584,14.923
		l-17.272,134.045c-1.212,9.469-9.278,16.552-18.786,16.552h-96.548v325.058C433.344,783.554,424.86,792,414.406,792z
		 M294.943,754.123h100.524V429.066c0-10.454,8.484-18.938,18.938-18.938h98.819l12.425-96.169H414.406
		c-10.454,0-18.938-8.484-18.938-18.938V209.42c0-36.134,8.863-84.2,85.412-84.2l52.005-0.038V41.361
		c-19.354-1.667-50.452-3.485-84.503-3.485c-96.093,0-153.438,59.164-153.438,158.324v98.82c0,10.454-8.484,18.938-18.938,18.938
		h-96.851v96.169h96.851c10.454,0,18.938,8.484,18.938,18.938L294.943,754.123L294.943,754.123z"/>
</g>
</svg>
